<svg width="163" height="148" viewBox="0 0 163 148" fill="none" xmlns="http://www.w3.org/2000/svg">
<rect width="163" height="148" fill="#323238"/>
<g clip-path="url(#clip0_125_18)">
<path d="M63.2422 22.3396H75.3173V27.3567H68.2914V32.3738H75.3173V37.3909H63.2422V22.3396Z" fill="white"/>
<path d="M77.7295 22.3396H89.8093V26.7051H82.7834V27.5754H89.8093V37.6097H77.7295V33.03H84.7554V32.1551H77.7295V22.3396Z" fill="white"/>
<path d="M92.2261 22.3396H104.297V26.7051H97.2706V27.5754H104.297V37.6097H92.2261V33.03H99.2519V32.1551H92.2261V22.3396Z" fill="white"/>
<path fill-rule="evenodd" clip-rule="evenodd" d="M84.2683 134.038L51.7432 125.065L42.1553 44.2929H126.466L116.882 125.055L84.2683 134.038ZM61.1111 80.8554L62.0057 90.7593H96.5589L95.4019 103.605L84.2823 106.593H84.273L73.1721 103.614L72.4602 95.7159H62.4506L63.8465 111.27L84.2683 116.901L104.723 111.27L107.215 83.5129L107.458 80.8554L109.257 60.801H59.3171L60.2258 70.7095H98.3341L97.4254 80.8554H61.1111Z" fill="white"/>
</g>
<defs>
<clipPath id="clip0_125_18">
<rect width="112.414" height="111.698" fill="white" transform="translate(28.1035 22.3396)"/>
</clipPath>
</defs>
</svg>
