<svg width="162" height="149" viewBox="0 0 162 149" fill="none" xmlns="http://www.w3.org/2000/svg">
<rect width="162" height="148.034" fill="#323238"/>
<path d="M112.062 52.7332H104.312L103.445 51.0041C103.124 50.3618 102.629 49.8216 102.017 49.4441C101.405 49.0665 100.699 48.8666 99.9798 48.8665H93.4867L90.1833 45.5702C88.9614 44.3522 86.875 45.2149 86.875 46.9368V65.0425L102.375 70.5658V66.2666H106.25C110.531 66.2666 114 62.8047 114 58.5332V54.6665C114 53.5984 113.133 52.7332 112.062 52.7332ZM98.5 58.5332C97.4295 58.5332 96.5625 57.668 96.5625 56.5999C96.5625 55.5317 97.4295 54.6665 98.5 54.6665C99.5705 54.6665 100.438 55.5317 100.438 56.5999C100.438 57.668 99.5705 58.5332 98.5 58.5332ZM63.625 68.1999C61.4889 68.1999 59.75 66.4647 59.75 64.3332C59.75 62.1981 58.0147 60.4665 55.875 60.4665C53.7353 60.4665 52 62.1981 52 64.3332C52 69.3672 55.2489 73.6193 59.75 75.2203V101.067C59.75 102.135 60.617 103 61.6875 103H69.4375C70.508 103 71.375 102.135 71.375 101.067V87.5333H90.75V101.067C90.75 102.135 91.617 103 92.6875 103H100.438C101.508 103 102.375 102.135 102.375 101.067V74.6705L84.217 68.1999H63.625Z" fill="white"/>
</svg>
