<svg width="162" height="149" viewBox="0 0 162 149" fill="none" xmlns="http://www.w3.org/2000/svg">
<rect width="162" height="148.034" fill="#323238"/>
<path d="M85.25 32.2409C85.25 28.0108 79.8224 26.4165 77.4318 29.9232C55.5 62.0984 86.6667 63.5469 86.6667 79.1876C86.6667 85.5202 81.5118 90.6443 75.1828 90.5608C68.9548 90.4808 64 85.2696 64 79.0187V63.8207C64 59.9638 59.3126 58.0923 56.6634 60.888C51.9229 65.8859 47 74.4474 47 84.875C47 103.692 62.2522 119 81 119C99.7478 119 115 103.692 115 84.875C115 54.6087 85.25 50.5724 85.25 32.2409V32.2409Z" fill="white"/>
</svg>
