<svg width="162" height="149" viewBox="0 0 162 149" fill="none" xmlns="http://www.w3.org/2000/svg">
<rect width="162" height="148.034" fill="#323238"/>
<path d="M49.7126 20.9483H54.6866V25.8625H59.2376V20.9483H64.2115V35.8241H59.2376V30.8456H54.6866V35.8241H49.7172V20.9483H49.7126Z" fill="white"/>
<path d="M70.7486 25.8809H66.3723V20.9483H80.1035V25.8809H75.7226V35.8241H70.7486V25.8809Z" fill="white"/>
<path d="M82.2822 20.9483H87.4676L90.6579 26.1751L93.8436 20.9483H99.029V35.8241H94.0781V28.4506L90.6579 33.7417H90.5706L87.1458 28.4552V35.8241H82.2822V20.9483Z" fill="white"/>
<path d="M101.502 20.9483H106.481V30.91H113.468V35.8287H101.502V20.9483Z" fill="white"/>
<path fill-rule="evenodd" clip-rule="evenodd" d="M49.5563 122.413L40.1509 42.6323H122.897L113.487 122.404L81.4777 131.276L49.5563 122.413ZM68.574 78.7416L67.6822 68.7201H105.125L105.998 58.9378H56.9942L59.6329 88.5285H93.5448L92.4094 101.216L81.4961 104.167H81.4869L70.5921 101.225L69.8934 93.4243H60.065L61.4349 108.787L81.4777 114.35L101.553 108.787L103.998 81.371L104.237 78.7462H68.574V78.7416Z" fill="white"/>
</svg>
