<svg width="166" height="145" viewBox="0 0 166 145" fill="none" xmlns="http://www.w3.org/2000/svg">
<rect width="166" height="145" fill="#323238"/>
<path d="M40.248 33.0012H127.183V116.103H40.248V33.0012ZM120.06 96.2829C119.427 92.4926 116.843 89.307 109.183 86.3338C106.517 85.1381 103.556 84.3117 102.668 82.3911C102.339 81.2462 102.291 80.6275 102.503 79.9489C103.049 77.7143 105.821 77.0449 107.995 77.6636C109.41 78.0791 110.714 79.1178 111.53 80.7845C115.273 78.4438 115.273 78.4438 117.886 76.888C116.906 75.4383 116.418 74.8058 115.766 74.1825C113.481 71.7449 110.439 70.4984 105.498 70.6046L102.948 70.9139C100.499 71.4864 98.1615 72.7375 96.7512 74.3949C92.6218 78.8639 93.8147 86.6524 98.8135 89.8795C103.754 93.4113 110.989 94.1869 111.912 97.511C112.781 101.564 108.763 102.862 104.788 102.395C101.856 101.768 100.224 100.369 98.4319 97.7695L91.8055 101.407C92.5638 103.065 93.4332 103.794 94.7372 105.249C101.04 111.324 116.799 111.015 119.625 101.768C119.726 101.458 120.494 99.33 119.895 96.0567L120.06 96.2829ZM87.5216 71.1955H79.3786C79.3786 77.9036 79.3448 84.5748 79.3448 91.2968C79.3448 95.5627 79.5718 99.4777 78.8425 100.683C77.6496 103.07 74.5634 102.765 73.1676 102.34C71.7331 101.666 71.0038 100.729 70.1586 99.3807C69.9316 99.0206 69.7626 98.7067 69.6998 98.7067L63.0927 102.603C64.1987 104.787 65.8119 106.661 67.8935 107.852C70.9894 109.621 75.1478 110.193 79.5042 109.261C82.3441 108.476 84.7928 106.864 86.063 104.371C87.9176 101.154 87.5216 97.2016 87.5071 92.788C87.5457 85.6736 87.5071 78.5546 87.5071 71.3894L87.5216 71.1955Z" fill="white"/>
</svg>
