<svg width="25" height="25" viewBox="0 0 25 25" fill="none" xmlns="http://www.w3.org/2000/svg">
<path d="M8.10059 19.6615C8.10059 19.7591 7.98828 19.8372 7.84668 19.8372C7.68555 19.8518 7.57324 19.7737 7.57324 19.6615C7.57324 19.5639 7.68555 19.4858 7.82715 19.4858C7.97363 19.4712 8.10059 19.5493 8.10059 19.6615ZM6.58203 19.4419C6.54785 19.5395 6.64551 19.6517 6.79199 19.681C6.91895 19.7298 7.06543 19.681 7.09473 19.5834C7.12402 19.4858 7.03125 19.3736 6.88477 19.3297C6.75781 19.2955 6.61621 19.3443 6.58203 19.4419ZM8.74023 19.3589C8.59863 19.3931 8.50098 19.4858 8.51562 19.5981C8.53027 19.6957 8.65723 19.7591 8.80371 19.7249C8.94531 19.6908 9.04297 19.5981 9.02832 19.5005C9.01367 19.4077 8.88184 19.3443 8.74023 19.3589ZM11.9531 0.658447C5.18066 0.658447 0 5.79718 0 12.5659C0 17.9779 3.4082 22.6091 8.27637 24.239C8.90137 24.3513 9.12109 23.9657 9.12109 23.6485C9.12109 23.346 9.10645 21.677 9.10645 20.6522C9.10645 20.6522 5.68848 21.3842 4.9707 19.1979C4.9707 19.1979 4.41406 17.7778 3.61328 17.4118C3.61328 17.4118 2.49512 16.6456 3.69141 16.6603C3.69141 16.6603 4.90723 16.7579 5.57617 17.9193C6.64551 19.803 8.4375 19.2613 9.13574 18.9393C9.24805 18.1584 9.56543 17.6167 9.91699 17.2947C7.1875 16.9921 4.43359 16.5968 4.43359 11.9022C4.43359 10.5601 4.80469 9.88669 5.58594 9.0278C5.45898 8.71059 5.04395 7.40273 5.71289 5.71422C6.7334 5.39701 9.08203 7.03184 9.08203 7.03184C10.0586 6.75856 11.1084 6.61703 12.1484 6.61703C13.1885 6.61703 14.2383 6.75856 15.2148 7.03184C15.2148 7.03184 17.5635 5.39213 18.584 5.71422C19.2529 7.40761 18.8379 8.71059 18.7109 9.0278C19.4922 9.89157 19.9707 10.565 19.9707 11.9022C19.9707 16.6115 17.0947 16.9872 14.3652 17.2947C14.8145 17.6802 15.1953 18.4122 15.1953 19.559C15.1953 21.2036 15.1807 23.2386 15.1807 23.6388C15.1807 23.956 15.4053 24.3415 16.0254 24.2293C20.9082 22.6091 24.2188 17.9779 24.2188 12.5659C24.2188 5.79718 18.7256 0.658447 11.9531 0.658447ZM4.74609 17.4899C4.68262 17.5387 4.69727 17.6509 4.78027 17.7436C4.8584 17.8217 4.9707 17.8559 5.03418 17.7924C5.09766 17.7436 5.08301 17.6314 5 17.5387C4.92188 17.4606 4.80957 17.4264 4.74609 17.4899ZM4.21875 17.0946C4.18457 17.158 4.2334 17.2361 4.33105 17.2849C4.40918 17.3337 4.50684 17.3191 4.54102 17.2507C4.5752 17.1873 4.52637 17.1092 4.42871 17.0604C4.33105 17.0311 4.25293 17.0458 4.21875 17.0946ZM5.80078 18.8319C5.72266 18.8953 5.75195 19.0417 5.86426 19.1345C5.97656 19.2467 6.11816 19.2613 6.18164 19.1833C6.24512 19.1198 6.21582 18.9734 6.11816 18.8807C6.01074 18.7684 5.86426 18.7538 5.80078 18.8319ZM5.24414 18.1145C5.16602 18.1633 5.16602 18.2902 5.24414 18.4024C5.32227 18.5147 5.4541 18.5635 5.51758 18.5147C5.5957 18.4512 5.5957 18.3244 5.51758 18.2121C5.44922 18.0999 5.32227 18.0511 5.24414 18.1145Z" fill="#E5E5E5"/>
</svg>
