<svg width="60" height="52" viewBox="0 0 60 52" fill="none" xmlns="http://www.w3.org/2000/svg">
<path d="M3.26795 25L2.6906 26L3.26795 27L15.7679 48.6506L16.3453 49.6506H17.5H42.5H43.6547L44.2321 48.6506L56.7321 27L57.3094 26L56.7321 25L44.2321 3.34937L43.6547 2.34937H42.5H17.5H16.3453L15.7679 3.34937L3.26795 25Z" fill="#FCA311" stroke="white" stroke-width="4"/>
<path d="M30.9848 31.1399L30.3073 31.817C30.0204 32.1037 29.5566 32.1037 29.2728 31.817L23.3401 25.8908C23.0533 25.6041 23.0533 25.1405 23.3401 24.8568L29.2728 18.9276C29.5596 18.6408 30.0235 18.6408 30.3073 18.9276L30.9848 19.6047C31.2747 19.8944 31.2686 20.3672 30.9726 20.6508L27.2952 24.1523H36.066C36.4718 24.1523 36.7984 24.4786 36.7984 24.8843V25.8603C36.7984 26.2659 36.4718 26.5923 36.066 26.5923H27.2952L30.9726 30.0937C31.2716 30.3774 31.2778 30.8502 30.9848 31.1399Z" fill="white"/>
</svg>
