<svg width="22" height="23" viewBox="0 0 22 23" fill="none" xmlns="http://www.w3.org/2000/svg">
<path d="M20.3125 0.657349H1.55762C0.698242 0.657349 0 1.36496 0 2.23362V20.9439C0 21.8125 0.698242 22.5201 1.55762 22.5201H20.3125C21.1719 22.5201 21.875 21.8125 21.875 20.9439V2.23362C21.875 1.36496 21.1719 0.657349 20.3125 0.657349ZM6.61133 19.3969H3.36914V8.96326H6.61621V19.3969H6.61133ZM4.99023 7.53827C3.9502 7.53827 3.11035 6.69402 3.11035 5.65944C3.11035 4.62486 3.9502 3.7806 4.99023 3.7806C6.02539 3.7806 6.87012 4.62486 6.87012 5.65944C6.87012 6.6989 6.03027 7.53827 4.99023 7.53827ZM18.7646 19.3969H15.5225V14.3216C15.5225 13.1113 15.498 11.5546 13.8379 11.5546C12.1484 11.5546 11.8896 12.8722 11.8896 14.2338V19.3969H8.64746V8.96326H11.7578V10.3882H11.8018C12.2363 9.56839 13.2959 8.70461 14.873 8.70461C18.1543 8.70461 18.7646 10.8665 18.7646 13.6774V19.3969Z" fill="#E5E5E5"/>
</svg>
