<svg width="22" height="23" viewBox="0 0 22 23" fill="none" xmlns="http://www.w3.org/2000/svg">
<path d="M19.5312 0.657349H2.34375C1.72215 0.657349 1.12601 0.904141 0.686468 1.34343C0.24693 1.78273 0 2.37854 0 2.99979L0 20.1777C0 20.799 0.24693 21.3948 0.686468 21.8341C1.12601 22.2733 1.72215 22.5201 2.34375 22.5201H9.04541V15.0873H5.96924V11.5887H9.04541V8.92227C9.04541 5.88929 10.8521 4.21396 13.6191 4.21396C14.9443 4.21396 16.3301 4.45015 16.3301 4.45015V7.42701H14.8032C13.2988 7.42701 12.8296 8.36008 12.8296 9.31706V11.5887H16.188L15.6509 15.0873H12.8296V22.5201H19.5312C20.1529 22.5201 20.749 22.2733 21.1885 21.8341C21.6281 21.3948 21.875 20.799 21.875 20.1777V2.99979C21.875 2.37854 21.6281 1.78273 21.1885 1.34343C20.749 0.904141 20.1529 0.657349 19.5312 0.657349Z" fill="#E5E5E5"/>
</svg>
